<svg xmlns="http://www.w3.org/2000/svg" width="50" height="40" viewBox="0 0 50 40" fill="none">
<path d="M37.0386 0.5H43.9646L35.7896 8.05823L34.8517 8.92536H36.129H48.8453L45.0254 12.9969H27.5806H27.1467L27.0856 13.4265L25.8759 21.9337L25.6668 23.4043L26.7227 22.3595L33.1894 15.9601H41.6063L26.7611 29.4044L26.6414 29.5129L26.6077 29.6709L24.9382 37.5109L23.3938 29.6783L23.3616 29.515L23.2379 29.4036L8.31799 15.9601H16.3353L23.2073 22.3697L24.2582 23.3499L24.0427 21.9291L22.7524 13.422L22.6879 12.9969H22.2581H5.36583L1.22223 8.92536H13.7097H14.9787L14.0507 8.05973L5.94645 0.5H12.8001L24.5956 10.5242L24.9194 10.7993L25.2431 10.5242L37.0386 0.5Z" fill="#56CBF9" fill-opacity="0.2" stroke="#56CBF9"/>
</svg>