<svg width="88" height="87" viewBox="0 0 88 87" fill="none" xmlns="http://www.w3.org/2000/svg">
<path d="M78.3165 31.6586L87.0387 6.82213C88.7836 1.85338 82.6518 -2.08884 78.8557 1.56117L77.904 2.47621L48.5026 30.6807C46.0449 33.0384 46.0401 36.9666 48.492 39.3303L55.4099 45.9991C57.704 48.2106 61.3267 48.2431 63.6601 46.0731L76.9888 33.6774C77.5897 33.1232 78.0457 32.43 78.3165 31.6586Z" fill="#FF729F"/>
<path fill-rule="evenodd" clip-rule="evenodd" d="M33.0416 45.9584C30.7785 48.2215 27.1374 48.3099 24.7671 46.1592L11.011 33.6774C10.41 33.1232 9.95412 32.43 9.68323 31.6586L0.961068 6.82213C-0.783872 1.85338 5.34793 -2.08884 9.14408 1.56117L10.0958 2.47621L39.5792 30.7592C42.0057 33.0869 42.0459 36.9541 39.6683 39.3317L33.0416 45.9584Z" fill="#56CBF9"/>
<path d="M54.9738 53.952L48.8042 59.6011C46.2172 61.9699 46.2051 66.0432 48.7781 68.4274L67.3926 85.6756C68.3161 86.5272 69.5262 87.0001 70.7824 87.0001H82.4805C86.8544 87.0001 89.12 81.7804 86.1328 78.5854L63.4085 54.2795C61.1621 51.8767 57.3998 51.7306 54.9738 53.952Z" fill="#2CF6B3"/>
</svg>
